<svg xmlns="http://www.w3.org/2000/svg" viewBox="0 0 64 64" role="img" aria-labelledby="title">
  <title id="title">Excel icon</title>
  <rect width="64" height="64" rx="14" fill="#107c41"/>
  <path d="M23 15h24a4 4 0 0 1 4 4v26a4 4 0 0 1-4 4H23z" fill="#fff" opacity=".92"/>
  <path d="M29 23h16v4H29zm0 7h16v4H29zm0 7h16v4H29z" fill="#107c41" opacity=".25"/>
  <path d="M36 19v27M27 30h23" stroke="#107c41" stroke-width="2" opacity=".5"/>
  <rect x="10" y="19" width="24" height="26" rx="4" fill="#0b5d2a"/>
  <path d="M16 26h4l2 4 2-4h4l-4 7 5 7h-4l-3-4-3 4h-4l5-7z" fill="#fff"/>
</svg>
